<?xml version="1.0" encoding="utf-8"?>
<svg width="420" height="458" viewBox="0 0 420 458" xmlns="http://www.w3.org/2000/svg">
<rect id="frame" x="0" y="0" width="420" height="458" fill="#f7f7f7" stroke="none" stroke-width="0"/>

<!-- Association are in -->
<g>
	<line x1="48" y1="195" x2="140" y2="60" stroke="#8073ac" stroke-width="2"/>
	<text x="92" y="149.56" fill="#b35806" font-family="Verdana" font-size="12">1,1</text>
	<line x1="244" y1="60" x2="140" y2="60" stroke="#8073ac" stroke-width="2"/>
	<text x="178" y="77" fill="#b35806" font-family="Verdana" font-size="12">0,N</text>
	<g>
		<path d="M151 35 a14 14 90 0 1 14 14 V60 h-50 V49 a14 14 90 0 1 14 -14" fill="#b2abd2" stroke="#b2abd2" stroke-width="0"/>
		<path d="M165 60 v11 a14 14 90 0 1 -14 14 H129 a14 14 90 0 1 -14 -14 V60 H50" fill="#d8daeb" stroke="#d8daeb" stroke-width="0"/>
		<rect x="115" y="35" width="50" height="50" fill="none" rx="14" stroke="#8073ac" stroke-width="2"/>
		<line x1="115" y1="60" x2="165" y2="60" stroke="#8073ac" stroke-width="1"/>
		<text x="122" y="52.75" fill="#000" font-family="Verdana" font-size="12">are in</text>
	</g>
</g>

<!-- Association are posted in -->
<g>
	<line x1="364" y1="195" x2="364" y2="60" stroke="#8073ac" stroke-width="2"/>
	<text x="369" y="145" fill="#b35806" font-family="Verdana" font-size="12">1,1</text>
	<line x1="244" y1="60" x2="364" y2="60" stroke="#8073ac" stroke-width="2"/>
	<text x="288" y="77" fill="#b35806" font-family="Verdana" font-size="12">0,N</text>
	<g>
		<path d="M397 35 a14 14 90 0 1 14 14 V60 h-94 V49 a14 14 90 0 1 14 -14" fill="#b2abd2" stroke="#b2abd2" stroke-width="0"/>
		<path d="M411 60 v11 a14 14 90 0 1 -14 14 H331 a14 14 90 0 1 -14 -14 V60 H94" fill="#d8daeb" stroke="#d8daeb" stroke-width="0"/>
		<rect x="317" y="35" width="94" height="50" fill="none" rx="14" stroke="#8073ac" stroke-width="2"/>
		<line x1="317" y1="60" x2="411" y2="60" stroke="#8073ac" stroke-width="1"/>
		<text x="324" y="52.75" fill="#000" font-family="Verdana" font-size="12">are posted in</text>
	</g>
</g>

<!-- Association post -->
<g>
	<line x1="244" y1="347" x2="140" y2="195" stroke="#8073ac" stroke-width="2"/>
	<text x="178" y="301.77" fill="#b35806" font-family="Verdana" font-size="12">0,N</text>
	<line x1="48" y1="195" x2="140" y2="195" stroke="#8073ac" stroke-width="2"/>
	<text x="92" y="212" fill="#b35806" font-family="Verdana" font-size="12">1,1</text>
	<g>
		<path d="M147 170 a14 14 90 0 1 14 14 V195 h-42 V184 a14 14 90 0 1 14 -14" fill="#b2abd2" stroke="#b2abd2" stroke-width="0"/>
		<path d="M161 195 v11 a14 14 90 0 1 -14 14 H133 a14 14 90 0 1 -14 -14 V195 H42" fill="#d8daeb" stroke="#d8daeb" stroke-width="0"/>
		<rect x="119" y="170" width="42" height="50" fill="none" rx="14" stroke="#8073ac" stroke-width="2"/>
		<line x1="119" y1="195" x2="161" y2="195" stroke="#8073ac" stroke-width="1"/>
		<text x="127" y="187.75" fill="#000" font-family="Verdana" font-size="12">post</text>
	</g>
</g>

<!-- Association prefer reading -->
<g>
	<line x1="244" y1="347" x2="244" y2="195" stroke="#8073ac" stroke-width="2"/>
	<text x="249" y="237" fill="#b35806" font-family="Verdana" font-size="12">1,1</text>
	<line x1="244" y1="60" x2="244" y2="195" stroke="#8073ac" stroke-width="2"/>
	<text x="249" y="128" fill="#b35806" font-family="Verdana" font-size="12">0,N</text>
	<g>
		<path d="M281 170 a14 14 90 0 1 14 14 V195 h-102 V184 a14 14 90 0 1 14 -14" fill="#b2abd2" stroke="#b2abd2" stroke-width="0"/>
		<path d="M295 195 v11 a14 14 90 0 1 -14 14 H207 a14 14 90 0 1 -14 -14 V195 H102" fill="#d8daeb" stroke="#d8daeb" stroke-width="0"/>
		<rect x="193" y="170" width="102" height="50" fill="none" rx="14" stroke="#8073ac" stroke-width="2"/>
		<line x1="193" y1="195" x2="295" y2="195" stroke="#8073ac" stroke-width="1"/>
		<text x="201" y="187.75" fill="#000" font-family="Verdana" font-size="12">prefer reading</text>
	</g>
</g>

<!-- Association like -->
<g>
	<line x1="244" y1="347" x2="140" y2="347" stroke="#8073ac" stroke-width="2"/>
	<text x="178" y="364" fill="#b35806" font-family="Verdana" font-size="12">0,N</text>
	<line x1="48" y1="195" x2="140" y2="347" stroke="#8073ac" stroke-width="2"/>
	<text x="92" y="256.12" fill="#b35806" font-family="Verdana" font-size="12">0,N</text>
	<g>
		<path d="M144 322 a14 14 90 0 1 14 14 V347 h-36 V336 a14 14 90 0 1 14 -14" fill="#b2abd2" stroke="#b2abd2" stroke-width="0"/>
		<path d="M158 347 v11 a14 14 90 0 1 -14 14 H136 a14 14 90 0 1 -14 -14 V347 H36" fill="#d8daeb" stroke="#d8daeb" stroke-width="0"/>
		<rect x="122" y="322" width="36" height="50" fill="none" rx="14" stroke="#8073ac" stroke-width="2"/>
		<line x1="122" y1="347" x2="158" y2="347" stroke="#8073ac" stroke-width="1"/>
		<text x="129" y="339.75" fill="#000" font-family="Verdana" font-size="12">like</text>
	</g>
</g>

<!-- Association leave -->
<g>
	<line x1="244" y1="347" x2="364" y2="347" stroke="#8073ac" stroke-width="2"/>
	<text x="288" y="364" fill="#b35806" font-family="Verdana" font-size="12">0,N</text>
	<line x1="364" y1="195" x2="364" y2="347" stroke="#8073ac" stroke-width="2"/>
	<text x="369" y="254" fill="#b35806" font-family="Verdana" font-size="12">1,1</text>
	<g>
		<path d="M374 322 a14 14 90 0 1 14 14 V347 h-48 V336 a14 14 90 0 1 14 -14" fill="#b2abd2" stroke="#b2abd2" stroke-width="0"/>
		<path d="M388 347 v11 a14 14 90 0 1 -14 14 H354 a14 14 90 0 1 -14 -14 V347 H48" fill="#d8daeb" stroke="#d8daeb" stroke-width="0"/>
		<rect x="340" y="322" width="48" height="50" fill="none" rx="14" stroke="#8073ac" stroke-width="2"/>
		<line x1="340" y1="347" x2="388" y2="347" stroke="#8073ac" stroke-width="1"/>
		<text x="348" y="339.75" fill="#000" font-family="Verdana" font-size="12">leave</text>
	</g>
</g>

<!-- Entity languages -->
<g>
	<g>
		<rect x="205" y="9" width="78" height="25" fill="#fdb863" stroke="#fdb863" stroke-width="0" opacity="1"/>
		<rect x="205" y="34" width="78" height="77" fill="#fee0b6" stroke="#fee0b6" stroke-width="0" opacity="1"/>
		<rect x="205" y="9" width="78" height="102" fill="none" stroke="#e08214" stroke-width="2" opacity="1"/>
		<line x1="205" y1="34" x2="283" y2="34" stroke="#e08214" stroke-width="1"/>
	</g>
	<text x="213" y="26.75" fill="#000" font-family="Verdana" font-size="12">languages</text>
	<text x="210" y="51.8" fill="#000" font-family="Verdana" font-size="12">id</text>
	<line x1="210" y1="54" x2="222" y2="54" stroke="#000" stroke-width="1"/>
	<text x="210" y="68.8" fill="#000" font-family="Verdana" font-size="12">lang</text>
	<text x="210" y="85.8" fill="#000" font-family="Verdana" font-size="12">locale</text>
	<text x="210" y="102.8" fill="#000" font-family="Verdana" font-size="12">description</text>
</g>

<!-- Entity videos -->
<g>
	<g>
		<rect x="9" y="110" width="78" height="25" fill="#fdb863" stroke="#fdb863" stroke-width="0" opacity="1"/>
		<rect x="9" y="135" width="78" height="145" fill="#fee0b6" stroke="#fee0b6" stroke-width="0" opacity="1"/>
		<rect x="9" y="110" width="78" height="170" fill="none" stroke="#e08214" stroke-width="2" opacity="1"/>
		<line x1="9" y1="135" x2="87" y2="135" stroke="#e08214" stroke-width="1"/>
	</g>
	<text x="28" y="127.75" fill="#000" font-family="Verdana" font-size="12">videos</text>
	<text x="14" y="152.8" fill="#000" font-family="Verdana" font-size="12">id</text>
	<line x1="14" y1="155" x2="26" y2="155" stroke="#000" stroke-width="1"/>
	<text x="14" y="169.8" fill="#000" font-family="Verdana" font-size="12">src</text>
	<text x="14" y="186.8" fill="#000" font-family="Verdana" font-size="12">title</text>
	<text x="14" y="203.8" fill="#000" font-family="Verdana" font-size="12">description</text>
	<text x="14" y="220.8" fill="#000" font-family="Verdana" font-size="12">uploaded</text>
	<text x="14" y="237.8" fill="#000" font-family="Verdana" font-size="12">status</text>
	<text x="14" y="254.8" fill="#000" font-family="Verdana" font-size="12">published</text>
	<text x="14" y="271.8" fill="#000" font-family="Verdana" font-size="12">views</text>
</g>

<!-- Entity comments -->
<g>
	<g>
		<rect x="327" y="153" width="74" height="25" fill="#fdb863" stroke="#fdb863" stroke-width="0" opacity="1"/>
		<rect x="327" y="178" width="74" height="59" fill="#fee0b6" stroke="#fee0b6" stroke-width="0" opacity="1"/>
		<rect x="327" y="153" width="74" height="84" fill="none" stroke="#e08214" stroke-width="2" opacity="1"/>
		<line x1="327" y1="178" x2="401" y2="178" stroke="#e08214" stroke-width="1"/>
	</g>
	<text x="332" y="170.75" fill="#000" font-family="Verdana" font-size="12">comments</text>
	<text x="332" y="195.8" fill="#000" font-family="Verdana" font-size="12">id</text>
	<line x1="332" y1="198" x2="344" y2="198" stroke="#000" stroke-width="1"/>
	<text x="332" y="212.8" fill="#000" font-family="Verdana" font-size="12">comment</text>
	<text x="332" y="229.8" fill="#000" font-family="Verdana" font-size="12">published</text>
</g>

<!-- Entity users -->
<g>
	<g>
		<rect x="205" y="245" width="78" height="25" fill="#fdb863" stroke="#fdb863" stroke-width="0" opacity="1"/>
		<rect x="205" y="270" width="78" height="179" fill="#fee0b6" stroke="#fee0b6" stroke-width="0" opacity="1"/>
		<rect x="205" y="245" width="78" height="204" fill="none" stroke="#e08214" stroke-width="2" opacity="1"/>
		<line x1="205" y1="270" x2="283" y2="270" stroke="#e08214" stroke-width="1"/>
	</g>
	<text x="228" y="262.75" fill="#000" font-family="Verdana" font-size="12">users</text>
	<text x="210" y="287.8" fill="#000" font-family="Verdana" font-size="12">id</text>
	<line x1="210" y1="290" x2="222" y2="290" stroke="#000" stroke-width="1"/>
	<text x="210" y="304.8" fill="#000" font-family="Verdana" font-size="12">email</text>
	<text x="210" y="321.8" fill="#000" font-family="Verdana" font-size="12">password</text>
	<text x="210" y="338.8" fill="#000" font-family="Verdana" font-size="12">channel</text>
	<text x="210" y="355.8" fill="#000" font-family="Verdana" font-size="12">title</text>
	<text x="210" y="372.8" fill="#000" font-family="Verdana" font-size="12">description</text>
	<text x="210" y="389.8" fill="#000" font-family="Verdana" font-size="12">url</text>
	<text x="210" y="406.8" fill="#000" font-family="Verdana" font-size="12">avatar</text>
	<text x="210" y="423.8" fill="#000" font-family="Verdana" font-size="12">registered</text>
	<text x="210" y="440.8" fill="#000" font-family="Verdana" font-size="12">role</text>
</g>
</svg>