<?xml version="1.0" standalone="no"?>
<!DOCTYPE svg PUBLIC "-//W3C//DTD SVG 20010904//EN"
 "http://www.w3.org/TR/2001/REC-SVG-20010904/DTD/svg10.dtd">
<svg version="1.0" xmlns="http://www.w3.org/2000/svg"
 width="700.000000pt" height="700.000000pt" viewBox="0 0 700.000000 700.000000"
 preserveAspectRatio="xMidYMid meet">
<metadata>
Created by potrace 1.14, written by Peter Selinger 2001-2017
</metadata>
<g transform="translate(0.000000,700.000000) scale(0.100000,-0.100000)"
fill="#000000" stroke="none">
<path d="M1559 5918 c-3 -106 -1 -4850 3 -4853 2 -3 157 87 344 198 186 112
444 266 572 342 129 77 253 151 277 165 24 14 303 180 620 370 316 190 588
352 604 361 28 17 445 266 1080 645 178 107 327 194 332 194 5 0 9 5 9 10 0 6
5 10 10 10 6 0 29 12 53 27 23 15 75 46 115 69 l73 42 -73 45 c-140 86 -730
437 -735 437 -2 0 -19 11 -37 25 -18 14 -36 25 -40 25 -4 0 -31 15 -59 34 -58
37 -296 179 -312 185 -5 2 -29 17 -52 32 -23 16 -44 29 -48 29 -3 0 -24 12
-48 27 -23 15 -51 32 -62 39 -54 30 -954 569 -977 585 -15 10 -29 19 -32 19
-3 0 -69 39 -148 87 -79 47 -152 91 -163 97 -34 19 -965 575 -1060 634 -49 30
-106 64 -125 75 -19 10 -54 30 -77 44 l-43 25 -1 -24z"/>
</g>
</svg>
