<svg width="512" height="512" viewBox="0 0 512 512" fill="none" xmlns="http://www.w3.org/2000/svg">
<rect width="512" height="512" fill="white"/>
<path d="M344 255.5L212.75 331.277V179.723L344 255.5Z" fill="#68C5FA"/>
<path d="M138.56 279V231.96H155.008V239.064H145.472V251.416H151.872V258.52H145.472V279H138.56ZM156.85 279V243.992H163.314V247.896C163.442 247.043 163.837 246.285 164.498 245.624C165.159 244.963 165.959 244.44 166.898 244.056C167.858 243.672 168.818 243.48 169.778 243.48V250.648C169.501 250.541 169.202 250.477 168.882 250.456C168.583 250.413 168.285 250.392 167.986 250.392C166.578 250.392 165.447 250.776 164.594 251.544C163.741 252.312 163.314 253.357 163.314 254.68V279H156.85ZM179.788 279.512C177.206 279.512 175.169 278.627 173.676 276.856C172.204 275.064 171.468 272.877 171.468 270.296V252.696C171.468 249.965 172.204 247.747 173.676 246.04C175.148 244.333 177.206 243.48 179.852 243.48C181.58 243.48 183.062 243.875 184.3 244.664C185.558 245.453 186.518 246.531 187.18 247.896C187.841 249.24 188.172 250.776 188.172 252.504V262.68H177.484V270.296C177.484 271.171 177.676 271.981 178.06 272.728C178.465 273.453 179.062 273.816 179.852 273.816C180.684 273.816 181.27 273.475 181.612 272.792C181.974 272.109 182.156 271.277 182.156 270.296V266.456H188.172V270.488C188.172 273.197 187.436 275.384 185.964 277.048C184.513 278.691 182.454 279.512 179.788 279.512ZM177.484 257.624H182.156V252.696C182.156 251.736 181.985 250.904 181.644 250.2C181.324 249.475 180.726 249.112 179.852 249.112C179.041 249.112 178.444 249.485 178.06 250.232C177.676 250.957 177.484 251.779 177.484 252.696V257.624ZM199.038 279.512C196.456 279.512 194.419 278.627 192.926 276.856C191.454 275.064 190.718 272.877 190.718 270.296V252.696C190.718 249.965 191.454 247.747 192.926 246.04C194.398 244.333 196.456 243.48 199.102 243.48C200.83 243.48 202.312 243.875 203.55 244.664C204.808 245.453 205.768 246.531 206.43 247.896C207.091 249.24 207.422 250.776 207.422 252.504V262.68H196.734V270.296C196.734 271.171 196.926 271.981 197.31 272.728C197.715 273.453 198.312 273.816 199.102 273.816C199.934 273.816 200.52 273.475 200.862 272.792C201.224 272.109 201.406 271.277 201.406 270.296V266.456H207.422V270.488C207.422 273.197 206.686 275.384 205.214 277.048C203.763 278.691 201.704 279.512 199.038 279.512ZM196.734 257.624H201.406V252.696C201.406 251.736 201.235 250.904 200.894 250.2C200.574 249.475 199.976 249.112 199.102 249.112C198.291 249.112 197.694 249.485 197.31 250.232C196.926 250.957 196.734 251.779 196.734 252.696V257.624ZM210.163 279V243.992H216.627V246.936C217.672 245.976 218.621 245.165 219.475 244.504C220.349 243.821 221.192 243.48 222.003 243.48C223.155 243.48 224.083 243.875 224.787 244.664C225.491 245.453 226.013 246.36 226.355 247.384C227.272 246.445 228.221 245.56 229.203 244.728C230.205 243.896 231.219 243.48 232.243 243.48C233.309 243.48 234.205 243.821 234.931 244.504C235.656 245.187 236.2 246.051 236.563 247.096C236.925 248.141 237.107 249.219 237.107 250.328V279H231.027V251.608C231.027 250.925 230.856 250.445 230.515 250.168C230.195 249.891 229.789 249.752 229.299 249.752C228.808 249.752 228.339 249.944 227.891 250.328C227.443 250.691 227.101 251.053 226.867 251.416V279H220.787V251.608C220.787 250.925 220.616 250.445 220.275 250.168C219.955 249.891 219.549 249.752 219.059 249.752C218.568 249.752 218.099 249.944 217.651 250.328C217.203 250.691 216.861 251.053 216.627 251.416V279H210.163ZM240.608 279V243.992H247.072V279H240.608ZM240.608 238.424V231.96H247.072V238.424H240.608ZM255.464 279.512C254.397 279.512 253.501 279.171 252.776 278.488C252.051 277.805 251.507 276.941 251.144 275.896C250.781 274.829 250.6 273.752 250.6 272.664V243.992H257.064V271.384C257.064 272.045 257.181 272.525 257.416 272.824C257.672 273.101 258.067 273.24 258.6 273.24C259.069 273.24 259.464 273.08 259.784 272.76C260.125 272.419 260.435 272.024 260.712 271.576V243.992H267.176V279H260.712V276.056C259.944 276.781 259.08 277.539 258.12 278.328C257.16 279.117 256.275 279.512 255.464 279.512ZM270.35 279V243.992H276.814V246.936C277.859 245.976 278.809 245.165 279.662 244.504C280.537 243.821 281.379 243.48 282.19 243.48C283.342 243.48 284.27 243.875 284.974 244.664C285.678 245.453 286.201 246.36 286.542 247.384C287.459 246.445 288.409 245.56 289.39 244.728C290.393 243.896 291.406 243.48 292.43 243.48C293.497 243.48 294.393 243.821 295.118 244.504C295.843 245.187 296.387 246.051 296.75 247.096C297.113 248.141 297.294 249.219 297.294 250.328V279H291.214V251.608C291.214 250.925 291.043 250.445 290.702 250.168C290.382 249.891 289.977 249.752 289.486 249.752C288.995 249.752 288.526 249.944 288.078 250.328C287.63 250.691 287.289 251.053 287.054 251.416V279H280.974V251.608C280.974 250.925 280.803 250.445 280.462 250.168C280.142 249.891 279.737 249.752 279.246 249.752C278.755 249.752 278.286 249.944 277.838 250.328C277.39 250.691 277.049 251.053 276.814 251.416V279H270.35ZM306.043 279V239.064H299.515V231.96H319.483V239.064H312.955V279H306.043ZM323.402 279.512C322.335 279.512 321.439 279.171 320.714 278.488C319.988 277.805 319.444 276.941 319.082 275.896C318.719 274.829 318.538 273.752 318.538 272.664V243.992H325.002V271.384C325.002 272.045 325.119 272.525 325.354 272.824C325.61 273.101 326.004 273.24 326.538 273.24C327.007 273.24 327.402 273.08 327.722 272.76C328.063 272.419 328.372 272.024 328.65 271.576V243.992H335.114V279H328.65V276.056C327.882 276.781 327.018 277.539 326.058 278.328C325.098 279.117 324.212 279.512 323.402 279.512ZM349.872 279.512C348.976 279.512 348.112 279.235 347.28 278.68C346.448 278.104 345.605 277.443 344.752 276.696V279H338.288V231.96H344.752V246.296C345.562 245.528 346.416 244.867 347.312 244.312C348.208 243.757 349.061 243.48 349.872 243.48C350.981 243.48 351.898 243.821 352.624 244.504C353.37 245.165 353.925 246.019 354.288 247.064C354.672 248.109 354.864 249.197 354.864 250.328V272.664C354.864 273.795 354.672 274.893 354.288 275.96C353.904 277.005 353.338 277.859 352.592 278.52C351.845 279.181 350.938 279.512 349.872 279.512ZM346.8 273.432C347.29 273.432 347.674 273.229 347.952 272.824C348.25 272.419 348.4 271.917 348.4 271.32V251.672C348.4 251.053 348.25 250.552 347.952 250.168C347.674 249.763 347.29 249.56 346.8 249.56C346.33 249.56 345.872 249.784 345.424 250.232C344.976 250.68 344.752 251.16 344.752 251.672V271.32C344.752 271.917 344.976 272.419 345.424 272.824C345.872 273.229 346.33 273.432 346.8 273.432ZM365.725 279.512C363.144 279.512 361.106 278.627 359.613 276.856C358.141 275.064 357.405 272.877 357.405 270.296V252.696C357.405 249.965 358.141 247.747 359.613 246.04C361.085 244.333 363.144 243.48 365.789 243.48C367.517 243.48 369 243.875 370.237 244.664C371.496 245.453 372.456 246.531 373.117 247.896C373.778 249.24 374.109 250.776 374.109 252.504V262.68H363.421V270.296C363.421 271.171 363.613 271.981 363.997 272.728C364.402 273.453 365 273.816 365.789 273.816C366.621 273.816 367.208 273.475 367.549 272.792C367.912 272.109 368.093 271.277 368.093 270.296V266.456H374.109V270.488C374.109 273.197 373.373 275.384 371.901 277.048C370.45 278.691 368.392 279.512 365.725 279.512ZM363.421 257.624H368.093V252.696C368.093 251.736 367.922 250.904 367.581 250.2C367.261 249.475 366.664 249.112 365.789 249.112C364.978 249.112 364.381 249.485 363.997 250.232C363.613 250.957 363.421 251.779 363.421 252.696V257.624Z" fill="#414141"/>
</svg>
